<?xml version="1.0" encoding="utf-8"?>
<!-- Generator: Adobe Illustrator 24.1.2, SVG Export Plug-In . SVG Version: 6.00 Build 0)  -->
<svg version="1.1" id="Layer_1" xmlns="http://www.w3.org/2000/svg" xmlns:xlink="http://www.w3.org/1999/xlink" x="0px" y="0px"
	 viewBox="0 0 57.1 74.4" style="enable-background:new 0 0 57.1 74.4;" xml:space="preserve">
<style type="text/css">
	.st0{fill:#FFFFFF;}
</style>
<g>
	<g>
		<path d="M50,27c0,1.9,0,3.8,0,5.8c-0.1,0.2-0.3,0.5-0.4,0.7c-0.7,4.8-2.8,9.3-6.7,12c-3.4,2.4-5,4.7-4.5,8.9
			c0.6,6.1-4.2,11.1-10.9,10.1c-3.3-0.5-6.6-2.8-7.3-6.1c-0.5-2.3-0.4-4.8-0.4-7.3c0.1-1.8-0.3-3-2.2-3.7c-0.9-0.3-1.7-1.2-2.5-1.9
			C9.9,40.8,7.7,35,8.2,28c0.5-6.5,3.4-11.7,8.7-15.4c3.9-2.8,8.2-3.8,13-3.6c8,0.3,13.8,4.1,17.5,11C48.6,22.1,49.1,24.6,50,27z
			 M20.1,41.4c0,1.8,0.1,3.6,0,5.3c-0.1,1.2,0.4,1.8,1.5,2.3c5.3,2.1,10.5,1.9,15.6-0.3c0.4-0.2,0.9-0.8,0.9-1.3
			c0.1-1.9,0-3.9,0-5.9C32.1,41.4,26.2,41.4,20.1,41.4z M33.4,25.2c-3.1,0-5.8,0-8.8,0c1.5,2.9,2.9,5.7,4.4,8.8
			C30.5,30.9,31.9,28.2,33.4,25.2z"/>
		<path class="st0" d="M50,27c-0.8-2.3-1.4-4.8-2.5-7c-3.7-7-9.5-10.7-17.5-11c-4.8-0.2-9.1,0.9-13,3.6c-5.3,3.8-8.2,8.9-8.7,15.4
			c-0.5,7,1.7,12.8,6.9,17.5c0.8,0.7,1.6,1.6,2.5,1.9c1.8,0.7,2.2,1.9,2.2,3.7c-0.1,2.4-0.1,4.9,0.4,7.3c0.7,3.3,4,5.6,7.3,6.1
			c6.6,0.9,11.5-4,10.9-10.1c-0.4-4.2,1.1-6.5,4.5-8.9c3.9-2.7,6-7.1,6.7-12c0-0.3,0.2-0.5,0.4-0.7c0,11,0,22.1,0,33.1
			c-14.3,0-28.6,0-42.8,0c0-19.1,0-38.2,0-57.2c14.3,0,28.6,0,42.8,0C50,14.7,50,20.8,50,27z"/>
		<path class="st0" d="M20.1,41.4c6.1,0,12,0,18,0c0,2,0.1,4,0,5.9c0,0.4-0.5,1.1-0.9,1.3C32,50.8,26.8,51,21.5,48.9
			c-1.1-0.4-1.6-1-1.5-2.3C20.1,45,20.1,43.3,20.1,41.4z"/>
		<path class="st0" d="M33.4,25.2c-1.5,2.9-2.8,5.7-4.4,8.8c-1.5-3-2.9-5.8-4.4-8.8C27.6,25.2,30.3,25.2,33.4,25.2z"/>
	</g>
</g>
</svg>
