<?xml version="1.0" encoding="utf-8"?>
<!-- Generator: Adobe Illustrator 24.1.2, SVG Export Plug-In . SVG Version: 6.00 Build 0)  -->
<svg version="1.1" id="Layer_1" xmlns="http://www.w3.org/2000/svg" xmlns:xlink="http://www.w3.org/1999/xlink" x="0px" y="0px"
	 viewBox="0 0 61.6 82.8" style="enable-background:new 0 0 61.6 82.8;" xml:space="preserve">
<style type="text/css">
	.st0{fill:#FFFFFF;}
</style>
<g>
	<g>
		<path class="st0" d="M31,67.4c-6.9,0-13.9,0-20.9,0c0-16.8,0-33.6,0-50.4c7,0,13.9,0,20.9,0c0,1.4,0,2.8,0,4.2
			c-10.1,0.4-17.6,6.6-19.9,15.6c-1.8,7.1-0.1,15.4,5.6,20.1c1.9-2,3.8-4.1,5.8-6.1c-4.9-6.2-4-11.4-1.2-15.4
			c2.2-3.2,5.4-5.5,9.9-5.4c0,1.4,0,2.6,0,3.9c2.9-3,5.7-5.8,9.1-9.3c-2.6-2.4-5.5-5-8.5-7.7c7.1,0,14.2,0,21.3,0
			c0,16.8,0,33.6,0,50.4c-7.2,0-14.4,0-21.6,0c0-1.4,0-2.8,0-4.2c7.3-0.3,10.9-2.5,14-5.3c6-5.4,7.9-12.3,6.5-20.1
			c-0.6-3.7-2.5-6.8-4.9-9.6c-0.6-0.7-1.1-1-1.9-0.2c-1.5,1.6-3.1,3-4.5,4.6c-0.3,0.3-0.3,1.3,0,1.6c5,5.8,3.9,13.4-2.3,18.2
			c-1.9,1.4-4.2,2.4-6.9,2c0-1.3,0-2.4,0-3.6c-2.9,2.8-5.6,5.5-8.9,8.8C25.3,62.1,28.2,64.7,31,67.4z"/>
		<path d="M31.7,17c2.9,2.6,5.8,5.3,8.5,7.7c-3.3,3.4-6.1,6.3-9.1,9.3c0-1.3,0-2.5,0-3.9c-4.5-0.1-7.7,2.2-9.9,5.4
			c-2.8,4-3.7,9.2,1.2,15.4c-1.9,2.1-3.9,4.1-5.8,6.1c-5.7-4.7-7.4-13.1-5.6-20.1c2.3-9,9.9-15.1,19.9-15.6c0-1.4,0-2.8,0-4.2
			C31.3,17,31.5,17,31.7,17z"/>
		<path d="M31,67.4c-2.9-2.6-5.8-5.2-8.6-7.8c3.3-3.2,6.1-6,8.9-8.8c0,1.1,0,2.3,0,3.6c2.7,0.4,5-0.6,6.9-2
			c6.2-4.7,7.4-12.3,2.3-18.2c-0.3-0.3-0.3-1.3,0-1.6c1.4-1.6,3-3.1,4.5-4.6c0.8-0.8,1.4-0.5,1.9,0.2c2.3,2.9,4.2,6,4.9,9.6
			c1.4,7.8-0.5,14.7-6.5,20.1c-3.1,2.8-6.6,5-14,5.3c0,1.4,0,2.8,0,4.2C31.3,67.4,31.1,67.4,31,67.4z"/>
	</g>
</g>
</svg>
