<?xml version="1.0" encoding="utf-8"?>
<!-- Generator: Adobe Illustrator 24.1.2, SVG Export Plug-In . SVG Version: 6.00 Build 0)  -->
<svg version="1.1" id="Layer_1" xmlns="http://www.w3.org/2000/svg" xmlns:xlink="http://www.w3.org/1999/xlink" x="0px" y="0px"
	 viewBox="0 0 57.1 77.8" style="enable-background:new 0 0 57.1 77.8;" xml:space="preserve">
<style type="text/css">
	.st0{fill:#FFFFFF;}
</style>
<g>
	<g>
		<path class="st0" d="M7.6,18.8c14.3,0,28.6,0,42.8,0c0,12.8,0,25.7,0,38.5c-14.3,0-28.6,0-42.8,0C7.6,44.4,7.6,31.6,7.6,18.8z
			 M39.6,55.4c0.8-8.2-1.8-11.6-7.1-13.7c-3.5-1.4-9.2-0.9-13.1,5.5c-2.4-2.6-3.8-5.4-3.7-8.9c1.2-0.1,2.2-0.1,3.6-0.2
			c-2-2.7-3.7-5-5.6-7.5c-1.9,2.6-3.7,5-5.7,7.8c1.6,0,2.7,0,3.7,0c0.3,4.5,2,9,4.5,11.3c1.7,1.5,2.8,3,2.4,5.4
			c0,0.1,0.1,0.2,0.2,0.4C25.6,55.4,32.5,55.4,39.6,55.4z M17.5,30.6c4.4-6,10.6-8,17-5.3c5.1,2.2,8.4,7.3,8.2,12.5
			c-1,0-2.1,0-3.4,0c1.9,2.6,3.7,4.9,5.5,7.3c1.8-2.5,3.5-4.8,5.5-7.5c-1.6,0-2.6,0-3.7,0c-0.1-1.2,0.1-2.3-0.2-3.3
			C43.8,24,35.1,18.8,24.8,21c-3.7,0.8-6.9,2.6-9.1,5.8c-0.2,0.3-0.3,1.1-0.2,1.4C16.1,29,16.8,29.8,17.5,30.6z M36.1,32.6
			c0.5-4.2-3.6-7.1-6.8-7c-4.1,0.1-7.1,3.1-7.3,7.1c-0.2,3.7,3.5,7.1,6.5,7C33.7,39.5,36.1,37.4,36.1,32.6z"/>
		<path d="M39.6,55.4c-7,0-14,0-20.8,0c-0.1-0.2-0.2-0.3-0.2-0.4c0.4-2.4-0.8-3.9-2.4-5.4c-2.6-2.3-4.2-6.8-4.5-11.3
			c-1,0-2.1,0-3.7,0c2.1-2.8,3.9-5.2,5.7-7.8c1.9,2.5,3.6,4.8,5.6,7.5c-1.4,0.1-2.4,0.2-3.6,0.2c0,3.5,1.3,6.4,3.7,8.9
			c3.9-6.4,9.6-6.9,13.1-5.5C37.7,43.8,40.4,47.2,39.6,55.4z"/>
		<path d="M17.5,30.6c-0.7-0.8-1.4-1.6-2-2.5c-0.2-0.3-0.1-1,0.2-1.4c2.2-3.2,5.5-5,9.1-5.8c10.3-2.2,19,3,21.6,13.4
			c0.3,1,0.1,2.1,0.2,3.3c1.1,0,2.1,0,3.7,0c-2,2.7-3.7,5-5.5,7.5c-1.8-2.5-3.6-4.8-5.5-7.3c1.4,0,2.4,0,3.4,0
			c0.1-5.3-3.1-10.3-8.2-12.5C28.1,22.7,21.9,24.7,17.5,30.6z"/>
		<path d="M36.1,32.6c0,4.9-2.3,6.9-7.5,7.1c-3.1,0.1-6.7-3.3-6.5-7c0.2-4.1,3.1-7,7.3-7.1C32.5,25.5,36.5,28.4,36.1,32.6z"/>
	</g>
</g>
</svg>
