<?xml version="1.0" encoding="utf-8"?>
<!-- Generator: Adobe Illustrator 24.1.2, SVG Export Plug-In . SVG Version: 6.00 Build 0)  -->
<svg version="1.1" id="Layer_1" xmlns="http://www.w3.org/2000/svg" xmlns:xlink="http://www.w3.org/1999/xlink" x="0px" y="0px"
	 viewBox="0 0 59 70.2" style="enable-background:new 0 0 59 70.2;" xml:space="preserve">
<style type="text/css">
	.st0{fill:#FFFFFF;}
</style>
<g>
	<g>
		<path class="st0" d="M8.1,15.6c14.5,0,29,0,43.6,0c0,11.3,0,22.6,0,33.8c-14.5,0-29,0-43.6,0C8.1,38.2,8.1,26.9,8.1,15.6z
			 M19.7,48.7c6,0,11.8,0,17.6,0c0.3,0,0.7-0.2,1-0.3c4-2,8-4,12-6c0.4-0.2,0.9-0.6,0.9-0.9c0.1-2.2,0-4.5,0-7c-1,0.4-1.6,0.7-2.3,1
			c-3.4,1.7-6.8,3.2-10.1,5.1c-2.1,1.2-4.2,0.9-6.7,0.9c0.4-0.5,0.7-0.7,0.9-1c1.2-1.2,1.1-2.6,0.5-3.9c-0.6-1.3-1.7-1.9-3.2-1.8
			c-0.9,0-1.8,0-2.7,0c-2.7,0-5.3,0-8.1,0C19.7,39.5,19.7,43.9,19.7,48.7z M16.4,17.1c-0.2,5.7,2.3,9.9,7.1,12.6
			c4.9,2.7,10,2.5,14.6-0.6c4.2-2.7,6.2-6.9,6.3-12.1c-7.3,0.5-12,4.1-14.1,11.2C28.3,21.2,23.7,17.7,16.4,17.1z M9.3,34.7
			c0,4.7,0,9.3,0,13.8c2.5,0,4.9,0,7.2,0c0-4.7,0-9.2,0-13.8C14.1,34.7,11.8,34.7,9.3,34.7z"/>
		<path d="M19.7,48.7c0-4.8,0-9.3,0-14c2.7,0,5.4,0,8.1,0c0.9,0,1.8,0,2.7,0c1.5-0.1,2.6,0.5,3.2,1.8c0.6,1.4,0.7,2.8-0.5,3.9
			c-0.2,0.2-0.5,0.5-0.9,1c2.5,0.1,4.6,0.3,6.7-0.9c3.3-1.9,6.7-3.4,10.1-5.1c0.6-0.3,1.3-0.6,2.3-1c0,2.5,0,4.7,0,7
			c0,0.3-0.6,0.7-0.9,0.9c-4,2-8,4-12,6c-0.3,0.2-0.7,0.3-1,0.3C31.5,48.7,25.7,48.7,19.7,48.7z"/>
		<path d="M16.4,17.1c7.3,0.6,11.9,4.1,13.9,11.1c2.1-7.1,6.9-10.6,14.1-11.2c-0.1,5.2-2.1,9.3-6.3,12.1c-4.6,3-9.7,3.3-14.6,0.6
			C18.7,27,16.2,22.8,16.4,17.1z"/>
		<path d="M9.3,34.7c2.5,0,4.8,0,7.2,0c0,4.6,0,9.2,0,13.8c-2.4,0-4.7,0-7.2,0C9.3,44,9.3,39.5,9.3,34.7z"/>
	</g>
</g>
</svg>
