<?xml version="1.0" encoding="utf-8"?>
<!-- Generator: Adobe Illustrator 24.1.2, SVG Export Plug-In . SVG Version: 6.00 Build 0)  -->
<svg version="1.1" id="Layer_1" xmlns="http://www.w3.org/2000/svg" xmlns:xlink="http://www.w3.org/1999/xlink" x="0px" y="0px"
	 viewBox="0 0 68.4 97.9" style="enable-background:new 0 0 68.4 97.9;" xml:space="preserve">
<style type="text/css">
	.st0{fill:#FFFFFF;}
</style>
<g>
	<g>
		<path class="st0" d="M57.8,78.8c-14.9,0-29.8,0-44.6,0c0-16.3,0-32.6,0-49c14.9,0,29.8,0,44.6,0C57.8,46.1,57.8,62.5,57.8,78.8z
			 M23.2,36.9c-0.9-1-1.7-1.9-2.6-2.8c-3.2,2.8-3.2,2.8-0.4,5.9c-0.4,1-0.8,2-1.3,3.2c-1.2,0-2.5,0-3.9,0c0,1.3,0,2.5,0,3.8
			c1.4,0,2.7,0,3.9,0c0.5,1.2,0.9,2.3,1.4,3.4c-0.8,0.9-1.7,1.8-2.5,2.7c1,1,2,1.8,2.9,2.7c1.4-0.7,1.7-2.9,4.3-1.8
			c2.7,1.1,0.7,3.2,1.8,4.4c1.2,0,2.4,0,3.5,0c0.4-3.5,0.6-3.8,1-4.1c2.6-1.9,3.7,0.5,5.2,1.7c1-1.1,2-2,3-3.1
			c-1.1-1.3-3.2-2.3-1.8-4.9c1.1-2.1,3-0.4,4.3-1.3c0-1.2,0-2.4,0-3.5c-1.6-0.7-3.5,0.8-4.5-1.9c-1-2.7,1.8-2.9,2.1-4.6
			c-0.9-0.8-1.8-1.7-2.9-2.8c-0.9,1-1.8,2.1-2.5,2.8c-3.6-0.2-4.1-2.5-3.7-5.1c-1.4,0-2.6,0-3.9,0c0,1.4,0,2.7,0,3.9
			C25.3,36.1,24.4,36.5,23.2,36.9z M30.3,77.1c8.9-8.9,17.8-17.7,26.6-26.5c-1.2-1.2-2.5-2.5-3.9-4c-7.5,7.5-15,15-22.6,22.7
			c-2.5-2.5-4.9-5-7.4-7.5c-1.2-1.2-2.6-3.3-3.8-3.3c-1.4,0.1-2.7,2.1-4,3.3c-0.1,0.1-0.1,0.2,0,0.1C20.3,67,25.4,72.1,30.3,77.1z"
			/>
		<path d="M23.2,36.9c1.2-0.5,2.2-0.9,3.3-1.3c0-1.2,0-2.5,0-3.9c1.3,0,2.5,0,3.9,0c-0.4,2.6,0.1,4.9,3.7,5.1
			c0.7-0.8,1.6-1.8,2.5-2.8c1.1,1.1,2,2,2.9,2.8c-0.3,1.8-3.1,1.9-2.1,4.6c1,2.7,2.9,1.2,4.5,1.9c0,1.1,0,2.3,0,3.5
			c-1.3,0.9-3.1-0.8-4.3,1.3c-1.4,2.6,0.7,3.5,1.8,4.9c-1,1-1.9,2-3,3.1c-1.4-1.2-2.6-3.6-5.2-1.7c-0.4,0.3-0.6,0.6-1,4.1
			c-1.2,0-2.3,0-3.5,0c-1.1-1.2,0.9-3.3-1.8-4.4c-2.6-1.1-3,1.1-4.3,1.8c-0.9-0.9-1.8-1.7-2.9-2.7c0.9-0.9,1.7-1.8,2.5-2.7
			c-0.5-1.1-0.9-2.2-1.4-3.4c-1.2,0-2.5,0-3.9,0c0-1.3,0-2.5,0-3.8c1.3,0,2.6,0,3.9,0c0.5-1.2,0.9-2.2,1.3-3.2
			c-2.7-3.1-2.7-3.1,0.4-5.9C21.5,35.1,22.3,36,23.2,36.9z M25,45.2c0,1.8,1.7,3.7,3.4,3.7c1.7,0.1,3.9-2.1,3.9-3.7
			c-0.1-1.8-1.9-3.5-3.8-3.5C26.4,41.7,25,43.2,25,45.2z"/>
		<path d="M30.3,77.1c-4.9-4.9-10-10-15.1-15.2c-0.1,0.1,0,0,0-0.1c1.3-1.2,2.6-3.2,4-3.3c1.2-0.1,2.6,2,3.8,3.3
			c2.5,2.4,4.9,4.9,7.4,7.5c7.6-7.7,15.1-15.2,22.6-22.7c1.5,1.5,2.8,2.8,3.9,4C48.1,59.4,39.2,68.2,30.3,77.1z"/>
		<path class="st0" d="M25,45.2c0-2,1.4-3.5,3.4-3.5c1.9,0,3.7,1.7,3.8,3.5c0.1,1.6-2.2,3.8-3.9,3.7C26.7,48.8,25,46.9,25,45.2z"/>
	</g>
</g>
</svg>
