<?xml version="1.0" encoding="utf-8"?>
<!-- Generator: Adobe Illustrator 24.1.2, SVG Export Plug-In . SVG Version: 6.00 Build 0)  -->
<svg version="1.1" id="Layer_1" xmlns="http://www.w3.org/2000/svg" xmlns:xlink="http://www.w3.org/1999/xlink" x="0px" y="0px"
	 viewBox="0 0 70.1 96.5" style="enable-background:new 0 0 70.1 96.5;" xml:space="preserve">
<style type="text/css">
	.st0{fill:#FFFFFF;}
</style>
<g>
	<g>
		<path d="M14.8,64.2c0-2.5,0-5,0-7.6c0.3-0.9,0.3-1.9,0.8-2.6c1.2-1.6,2.7-2.9,4-4.3c-2.8-1.4-3.4-4.1-2.9-6c0.8-3.2,3-4.2,5.5-4.3
			c2.1-0.1,4.5,2,5,3.9c0.7,2.7-0.6,5.3-3,6.6c1.4,1.2,3,2.4,4.3,3.5c0.2-1.7,0.2-4,0.8-6c0.6-2.2,2.4-3.5,4.7-4.2
			c-3-1.9-4.1-4.2-3.4-6.8c0.6-2,2.7-3.7,4.8-3.8c2.1-0.2,4.5,1.1,5.4,3.4c1.1,2.6,0.3,4.5-3,7.3c5.7,1.8,4.8,6.6,4.8,10.7
			c1.6-1.4,3.1-2.8,4.6-4.1c-2.5-1.6-3.6-3.8-2.9-6.2c0.9-3.1,3.1-4.1,5.4-4.2c2-0.1,4.7,1.8,5,3.8c0.2,1.3,0.2,2.8-0.4,4
			c-0.5,1.2-1.8,2-2.6,2.9c2,0.9,4.2,2.2,4.5,4.9c0.3,3,0.3,6,0.5,9.2C42.7,64.2,28.8,64.2,14.8,64.2z"/>
		<path class="st0" d="M14.8,64.2c13.9,0,27.9,0,42.2,0C56.9,61,56.9,58,56.5,55c-0.3-2.7-2.5-4-4.5-4.9c0.8-0.9,2.1-1.8,2.6-2.9
			c0.5-1.2,0.6-2.7,0.4-4c-0.3-1.9-3-3.8-5-3.8c-2.3,0.1-4.5,1.2-5.4,4.2c-0.7,2.4,0.4,4.6,2.9,6.2c-1.5,1.3-3,2.7-4.6,4.1
			c0-4.1,0.9-8.9-4.8-10.7c3.3-2.8,4-4.7,3-7.3c-1-2.4-3.3-3.6-5.4-3.4c-2.1,0.2-4.3,1.8-4.8,3.8c-0.8,2.6,0.4,4.9,3.4,6.8
			c-2.2,0.7-4,2-4.7,4.2c-0.6,2.1-0.6,4.3-0.8,6c-1.3-1.1-2.9-2.3-4.3-3.5c2.3-1.2,3.6-3.9,3-6.6c-0.5-1.9-2.9-3.9-5-3.9
			c-2.5,0.1-4.7,1.1-5.5,4.3c-0.5,2,0,4.6,2.9,6c-1.3,1.4-2.8,2.7-4,4.3c-0.5,0.7-0.5,1.7-0.8,2.6c0-8.1,0-16.3,0-24.4
			c14.2,0,28.4,0,42.8,0c0,5.4,0,10.9,0,16.4c0,7.1,0,14.3,0,21.4c0,0.5,0.4,1.3-0.7,1.1c0-1.3,0-2.6,0-4c-14.2,0-28.1,0-42.1,0
			C14.8,66.1,14.8,65.2,14.8,64.2z"/>
		<path d="M14.8,67.1c13.9,0,27.8,0,42.1,0c0,1.4,0,2.7,0,4c-14,0-28,0-42.1,0C14.8,69.7,14.8,68.4,14.8,67.1z"/>
	</g>
</g>
</svg>
